<?xml version="1.0" standalone="no"?>
<!DOCTYPE svg PUBLIC "-//W3C//DTD SVG 20010904//EN"
 "http://www.w3.org/TR/2001/REC-SVG-20010904/DTD/svg10.dtd">
<svg version="1.0" xmlns="http://www.w3.org/2000/svg"
 width="512.000000pt" height="512.000000pt" viewBox="0 0 512.000000 512.000000"
 preserveAspectRatio="xMidYMid meet">
<metadata>
Created by potrace 1.11, written by Peter Selinger 2001-2013
</metadata>
<g transform="translate(0.000000,512.000000) scale(0.100000,-0.100000)"
fill="#000000" stroke="none">
<path d="M1400 3143 c0 -21 -153 -815 -165 -854 -21 -73 -52 -126 -92 -156
-34 -26 -43 -28 -127 -28 -50 0 -103 3 -118 8 -25 7 -28 4 -37 -31 -28 -103
-30 -99 35 -112 88 -18 238 -9 295 19 84 40 150 127 189 245 17 52 178 899
173 909 -5 9 -153 9 -153 0z"/>
<path d="M1901 3140 c-29 -5 -56 -12 -61 -17 -11 -12 -222 -1134 -215 -1142 4
-3 113 -6 243 -6 217 0 244 2 317 23 285 82 466 319 482 632 9 169 -29 290
-119 380 -102 102 -226 141 -447 139 -80 -1 -170 -5 -200 -9z m432 -158 c121
-60 170 -151 171 -317 0 -172 -58 -318 -170 -425 -68 -65 -151 -109 -242 -129
-59 -12 -292 -15 -292 -3 1 24 169 892 175 902 6 9 45 11 149 8 137 -3 144 -4
209 -36z"/>
<path d="M2897 3142 c-3 -4 8 -266 24 -582 15 -316 29 -579 29 -583 0 -4 37
-7 82 -5 l81 3 170 360 c93 198 189 410 213 470 l43 110 1 -130 c1 -71 9 -283
18 -470 l17 -340 80 0 80 0 267 575 c147 316 268 581 268 588 0 8 -22 12 -78
12 l-77 0 -158 -354 c-87 -194 -180 -409 -207 -477 l-50 -124 0 50 c0 28 -7
221 -15 430 -8 209 -15 402 -15 428 l0 48 -82 -3 -83 -3 -182 -400 c-100 -219
-194 -431 -209 -470 -15 -38 -30 -73 -34 -78 -3 -4 -7 75 -8 175 -1 101 -7
293 -12 428 -5 135 -10 269 -10 298 l0 52 -74 0 c-41 0 -77 -3 -79 -8z"/>
</g>
</svg>
